<?xml version="1.0" encoding="utf-8"?><!DOCTYPE svg PUBLIC "-//W3C//DTD SVG 1.1//EN" "http://www.w3.org/Graphics/SVG/1.1/DTD/svg11.dtd"><svg id="%E7%99%BE%E5%BA%A6" width="128" height="128" style="width:256px;height:256px;" version="1.1" xmlns="http://www.w3.org/2000/svg" viewBox="0 0 1024 1024" enable-background="new 0 0 1024 1024" xml:space="preserve"><path fill="#f1f1f1" d="M145.09 538.92 q-84.49 11.41 -118.74 -51.38 q-34.25 -61.66 -23.98 -113.04 q-2.28 -7.99 17.13 -66.22 q20.55 -58.23 87.91 -71.93 q55.95 -1.15 91.92 38.82 q35.96 39.96 40.53 77.64 q6.85 28.54 -3.43 94.76 q-10.27 66.23 -91.34 91.35 l0 0 ZM266.12 769.55 q2.28 -6.85 17.13 -17.12 q14.84 -10.28 36.53 -17.13 l63.94 0 l0 127.88 l-63.94 0 q-2.28 2.28 -23.97 -2.28 q-21.7 -3.43 -34.26 -36.54 q-4.56 -15.99 -1.14 -31.97 q2.29 -14.84 5.71 -22.84 l0 0 ZM356.32 316.27 q-47.95 -2.28 -79.92 -46.81 q-31.97 -44.53 -33.12 -111.9 q1.15 -67.36 33.12 -111.89 q31.97 -44.53 79.92 -45.67 q49.1 1.14 81.07 45.67 q31.97 44.53 33.11 111.89 q-1.14 67.37 -33.11 111.9 q-31.97 44.53 -81.07 46.81 l0 0 ZM626.92 326.55 q-61.66 -10.28 -81.64 -55.95 q-19.98 -45.67 -13.13 -103.9 q8 -49.1 51.38 -98.19 q42.25 -47.96 90.2 -42.25 q45.67 12.56 77.64 58.23 q30.83 46.81 25.12 98.19 q-9.13 53.67 -46.81 100.48 q-38.82 47.95 -102.76 43.39 l0 0 ZM833.58 717.03 q7.99 0 39.96 54.81 q33.11 54.8 -5.71 163.27 q-58.23 98.19 -167.84 87.92 q-109.61 -10.28 -121.02 -19.41 q-2.29 -2.29 -54.81 -10.28 q-51.38 -9.13 -126.74 4.57 q-75.35 15.98 -123.31 20.55 q-47.95 5.71 -50.24 4.57 q-6.85 3.42 -65.08 -21.7 q-58.23 -26.26 -89.05 -127.88 q-14.85 -106.18 45.67 -163.27 q60.51 -58.23 78.78 -67.36 q10.27 -10.28 53.66 -46.82 q42.25 -36.53 81.07 -97.05 q41.1 -66.22 129.02 -82.2 q87.91 -15.99 168.98 95.91 q62.8 82.2 131.3 141.57 q69.65 59.38 75.36 62.8 l0 0 ZM447.66 927.12 l0 -351.67 l-63.94 0 l0 95.91 l-95.91 0 q-3.42 -2.28 -37.67 15.99 q-34.26 17.12 -58.23 81.06 q-5.71 43.39 1.14 68.51 q6.85 25.12 10.27 30.83 q1.14 7.99 19.41 31.97 q18.27 23.97 65.08 27.4 l159.85 0 l0 0 ZM703.42 927.12 l0 -255.76 l-63.94 0 l0 191.82 l-63.94 0 q-1.14 0 -13.7 -9.14 q-12.56 -9.13 -18.27 -22.83 l0 -159.85 l-63.94 0 l0 195.24 q-1.14 3.43 9.14 29.69 q10.27 25.12 54.8 30.83 l159.85 0 l0 0 ZM960.32 437.3 q4.56 31.97 -9.14 97.05 q-12.56 63.94 -101.61 73.07 q-90.2 -1.14 -111.9 -46.81 q-21.69 -46.81 -18.27 -95.91 q-2.28 -51.38 19.41 -101.62 q21.7 -49.09 94.77 -52.52 q73.07 4.57 100.48 51.38 q27.4 46.81 26.26 75.36 l0 0 Z"/></svg>